<?xml version="1.0" encoding="UTF-8" standalone="no"?>
<!-- Created with Inkscape (http://www.inkscape.org/) -->

<svg
   xmlns:dc="http://purl.org/dc/elements/1.1/"
   xmlns:cc="http://creativecommons.org/ns#"
   xmlns:rdf="http://www.w3.org/1999/02/22-rdf-syntax-ns#"
   xmlns:svg="http://www.w3.org/2000/svg"
   xmlns="http://www.w3.org/2000/svg"
   xmlns:sodipodi="http://sodipodi.sourceforge.net/DTD/sodipodi-0.dtd"
   xmlns:inkscape="http://www.inkscape.org/namespaces/inkscape"
   width="30.257717mm"
   height="30.257992mm"
   viewBox="0 0 107.21238 107.21336"
   id="svg2"
   version="1.1"
   inkscape:version="0.91 r13725"
   sodipodi:docname="search.svg">
  <defs
     id="defs4" />
  <sodipodi:namedview
     id="base"
     pagecolor="#ffffff"
     bordercolor="#666666"
     borderopacity="1.0"
     inkscape:pageopacity="0.0"
     inkscape:pageshadow="2"
     inkscape:zoom="2.8284271"
     inkscape:cx="37.343577"
     inkscape:cy="71.730593"
     inkscape:document-units="px"
     inkscape:current-layer="layer1"
     showgrid="false"
     inkscape:snap-bbox="true"
     inkscape:bbox-paths="true"
     inkscape:bbox-nodes="true"
     inkscape:snap-bbox-edge-midpoints="true"
     inkscape:snap-bbox-midpoints="true"
     inkscape:object-paths="true"
     inkscape:snap-intersection-paths="true"
     inkscape:object-nodes="true"
     inkscape:snap-smooth-nodes="true"
     inkscape:snap-midpoints="true"
     inkscape:snap-object-midpoints="true"
     inkscape:snap-center="true"
     inkscape:snap-text-baseline="true"
     showguides="false"
     inkscape:guide-bbox="true"
     inkscape:window-width="1920"
     inkscape:window-height="1018"
     inkscape:window-x="-8"
     inkscape:window-y="-8"
     inkscape:window-maximized="1"
     fit-margin-top="0"
     fit-margin-left="0"
     fit-margin-right="0"
     fit-margin-bottom="0" />
  <metadata
     id="metadata7">
    <rdf:RDF>
      <cc:Work
         rdf:about="">
        <dc:format>image/svg+xml</dc:format>
        <dc:type
           rdf:resource="http://purl.org/dc/dcmitype/StillImage" />
        <dc:title></dc:title>
      </cc:Work>
    </rdf:RDF>
  </metadata>
  <g
     inkscape:label="Calque 1"
     inkscape:groupmode="layer"
     id="layer1"
     transform="translate(-334.72266,-280.47656)">
    <path
       style="fill:#808080;fill-rule:evenodd;stroke:none;stroke-width:1px;stroke-linecap:butt;stroke-linejoin:miter;stroke-opacity:1"
       d="m 370.71484,280.97656 c -19.60169,2.4e-4 -35.49195,15.8905 -35.49218,35.49219 -8.4e-4,19.60246 15.88972,35.4939 35.49218,35.49414 6.81907,-0.001 13.49338,-1.96715 19.22461,-5.66211 l 38.61524,38.61524 c 2.91577,3.00474 7.72693,3.04067 10.68725,0.0798 2.96031,-2.96086 2.9235,-7.77201 -0.0818,-10.68723 l -38.63868,-38.63867 c 3.6989,-5.72199 5.67266,-12.38773 5.68555,-19.20117 -2.3e-4,-19.6017 -15.89049,-35.49196 -35.49219,-35.49219 z m 0,10.39649 c 13.85966,7.5e-4 25.09495,11.23604 25.09571,25.0957 3.3e-4,13.86043 -11.23528,25.09691 -25.09571,25.09766 -13.86119,3.2e-4 -25.09798,-11.23647 -25.09765,-25.09766 7.6e-4,-13.86042 11.23723,-25.09602 25.09765,-25.0957 z"
       id="path3336"
       inkscape:connector-curvature="0"
       sodipodi:nodetypes="cccccsccccccccc" />
  </g>
</svg>
